<svg id="Calque_1" xmlns="http://www.w3.org/2000/svg" viewBox="0 0 633.4 117.7"><style>.st0{fill:#e63312}</style><path class="st0" d="M49 28.1c-1.3-.1-2.5.3-3.6 1-.8.6-1.4 1.4-1.7 2.4-4.9-2.8-10.4-4.2-16-4.1C16.5 27.4 9.4 31 5.3 37S0 51.1 0 60.2C0 69.9 1.5 78 5.7 83.8s11.1 9 21.5 9c6.8 0 12.6-2.4 16.3-5.7v9.7c0 2-.9 4-2.5 5.2-2.5 2-6.7 3.2-11.7 3.9S18.5 107 13 107.4c-1.3.1-2.4.8-3.1 1.8-.7 1-1 2.1-1 3.3 0 1.3.4 2.6 1.3 3.6 1 1 2.4 1.6 3.8 1.6 10 0 20-.7 27.7-3.8 3.6-1.3 6.8-3.5 9.3-6.5 2.4-3.2 3.7-7.1 3.6-11.1V33.7c.1-1.6-.5-3.2-1.6-4.3-1.2-.9-2.6-1.3-4-1.3zM43.5 43v16.7c0 8.4-1.5 14.1-4.1 17.8s-6.3 5.2-11.4 5.3c-7.2 0-11.3-2.1-13.7-5.8S11 67.5 11 60.3s.7-13 3.2-16.8 6.6-5.9 14.1-5.9c5.6-.3 11 1.7 15.2 5.4zM100.6 27.4c-6 0-12.9 3.1-17.3 6.6v-.3c.1-1.6-.5-3.2-1.6-4.3-2.3-1.7-5.5-1.7-7.8 0-1.1 1.1-1.7 2.7-1.6 4.3v54.2c-.1 1.6.5 3.2 1.6 4.3 1.1.9 2.5 1.4 3.9 1.3 2.7.3 5.2-1.7 5.5-4.5V43.8c4.2-3.4 10.7-5.8 17.4-6.6 1.4 0 2.8-.5 3.8-1.4.8-1.1 1.2-2.5 1.1-3.8.1-1.3-.4-2.5-1.3-3.4-1.1-.9-2.4-1.3-3.7-1.2zM153.5 32.6c-4.2-3.5-10.4-5.2-18.1-5.2-5.3-.1-10.6.9-15.6 2.9-1.7.7-3.3 1.7-4.6 2.9-1.1.9-1.7 2.2-1.8 3.6 0 1.3.5 2.5 1.3 3.5s2 1.6 3.4 1.7c.8 0 1.5-.2 2.2-.6 4.6-2.6 9.8-4 15.1-3.9 3.3-.1 6.5.7 9.4 2.2 2.9 1.7 4.6 4.8 4.4 8.1v4.5c-8.3.1-18 .7-25.9 3.7-3.9 1.4-7.4 3.8-10.1 7-2.8 3.6-4.2 8.1-4 12.7-.1 4.9 1.8 9.6 5.3 12.9 3.5 3.2 8.6 5.1 15 5.1h.1c7.3.2 14.4-2.3 19.9-7.1v1.5c-.1 1.6.4 3.1 1.5 4.3 2.3 1.7 5.4 1.7 7.7 0 1.1-1.2 1.6-2.7 1.5-4.3v-40c-.2-6.8-2.5-12-6.7-15.5zm-9.9 46.7c-3.6 2.9-8 4.5-12.6 4.5-4.1 0-6.9-1-8.6-2.5-1.8-1.8-2.8-4.3-2.6-6.8-.1-2.3.7-4.6 2.2-6.5 2.2-2.5 5.8-4.2 10-5.2 4.5-1 9.2-1.4 13.8-1.3 1.1 0 2.1 0 3.2.1v7.3c-.2 4-2.1 7.9-5.4 10.4zM204.2 27.4c-5.6-.1-11.1 1.3-16 4.1-.3-.9-.9-1.8-1.6-2.4-1.1-.7-2.3-1.1-3.6-1-1.4-.1-2.8.4-3.9 1.3-1.1 1.1-1.7 2.7-1.6 4.3v77.4c-.3 2.7 1.6 5.2 4.3 5.6.4 0 .8.1 1.2 0 1.4.1 2.8-.4 3.9-1.3 1.1-1.1 1.7-2.7 1.6-4.3V88.3c3.4 3.2 8.3 5.2 15.1 5.2 11.2 0 18.4-3.3 22.7-9.2s5.7-14.1 5.7-23.8c0-9.1-1.2-17.3-5.3-23.3s-11.3-9.8-22.5-9.8zm.8 56.1c-7.5 0-11.4-2.1-13.7-5.9s-2.9-9.6-2.9-17.2V43c4.2-3.6 9.5-5.6 15.1-5.5 7.5 0 11.6 2.2 14.1 6.1s3.2 9.7 3.2 17c0 7-.7 12.9-2.9 16.8s-6 6-12.9 6.1zM274.6 27.4c-6.5-.1-12.8 1.7-18.4 5V5.8c.1-1.6-.5-3.2-1.6-4.3-2.3-1.7-5.5-1.7-7.8 0-1.1 1.1-1.7 2.7-1.6 4.3v82.1c-.1 1.6.5 3.2 1.6 4.3 2.1 2.2 5.6 2.2 7.8 0 1.1-1.1 1.7-2.7 1.6-4.3V43.1c5.2-3.6 11.3-5.6 17.7-5.7 2.9-.1 5.8.4 8.5 1.6 3 1.5 4.5 4 5.4 7.7s.9 8.3.9 13.8v27.4c-.1 1.6.5 3.2 1.6 4.3 1.1.9 2.5 1.4 3.9 1.3 2.7.3 5.2-1.7 5.5-4.5V60.5c0-9-.5-17.2-3.9-23.3s-10-9.8-21.2-9.8zM339.4 27.4c-9.4 0-16.2 3.9-20.5 10s-6.2 14.3-6.2 23.1c0 9.1 1.6 17.3 6 23.4s11.9 9.7 23 9.7h.1c5 .1 9.8-1.1 14.3-3.2 3.6-1.9 5.9-4.3 6-6.8 0-2.8-2.1-5.1-4.9-5.2-.9 0-1.8.3-2.5.8-4.1 2.7-7.8 4.4-13 4.4-7.1 0-11.3-2-14-5.5s-3.6-8.3-3.8-14.6h34.4c1.8.1 3.6-.6 4.9-2 1.1-1.3 1.6-3 1.6-4.7V54c0-6.6-1.4-13.2-5.4-18.2s-10.5-8.4-20-8.4zm14.2 26.3h-29.7c.5-4.8 1.7-8.8 4-11.6 2.4-2.9 6-4.7 11.3-4.7s8.8 1.6 11 4.5 3.2 6.7 3.4 11.8zM325.7 10.7l14.1 11.1c.8.7 1.9 1.1 3 1.1 2.7 0 4.9-2.2 4.9-4.9-.1-1.5-.7-2.9-1.9-3.9L332.1 2.7c-.8-.7-1.9-1-2.9-1.1-3 .1-5.3 2.5-5.4 5.5.1 1.4.7 2.7 1.9 3.6zM461.4 30c-3.2-1.7-7.4-2.6-13-2.6-8.5 0-14.8 2.4-22.4 7.7-3.2-4.9-9-7.7-18.6-7.6-6.5 0-12.9 1.7-18.4 5.1-.1-1.2-.7-2.3-1.6-3.1-1.1-.8-2.4-1.3-3.8-1.2-1.4-.1-2.8.4-3.9 1.3-1.1 1.1-1.7 2.7-1.6 4.3V88c-.1 1.6.5 3.2 1.6 4.3 2.2 2.1 5.7 2 7.8-.2 1.1-1.1 1.6-2.6 1.5-4.1V43.1c5.2-3.6 11.3-5.6 17.7-5.7 2.5-.1 5 .4 7.2 1.6 2.5 1.5 3.8 4 4.5 7.7s.7 8.3.7 13.8v27.4c.1 3.2 2.7 5.7 5.9 5.6 1.3 0 2.5-.5 3.5-1.3 1.1-1.1 1.7-2.7 1.6-4.3V60.5c0-5.8 0-11.1-.8-15.9 5.2-4.4 12.4-7.2 18.4-7.2 2.5-.1 5 .4 7.2 1.6 2.5 1.5 3.8 4 4.5 7.7s.6 8.3.6 13.8v27.4c-.3 2.7 1.6 5.2 4.3 5.6.4 0 .8.1 1.2 0 1.4.1 2.8-.4 3.9-1.3 1.1-1.1 1.7-2.7 1.6-4.3V60.5c0-9 0-17.2-2.8-23.2-1.4-3.2-3.8-5.7-6.8-7.3zM510.8 27.4c-9.4 0-16.2 3.9-20.5 10s-6.2 14.3-6.2 23c0 9.1 1.6 17.3 6 23.4s11.9 9.7 23 9.7h.1c4.9.1 9.8-1 14.3-3.2 3.6-1.9 5.9-4.3 6-6.8 0-2.8-2.1-5.1-4.9-5.2-.9 0-1.8.3-2.5.8-4.1 2.7-7.8 4.4-13 4.4-7.1 0-11.3-2-14-5.5s-3.6-8.3-3.8-14.6h34.4c1.8.1 3.6-.6 4.9-2 1.1-1.3 1.6-3 1.6-4.7v-2.8c0-6.6-1.5-13.2-5.4-18.2s-10.5-8.3-20-8.3zM525 53.7h-29.7c.5-4.8 1.7-8.8 4-11.6 2.4-2.9 6-4.7 11.3-4.7 5.3 0 8.8 1.6 11 4.5s3.2 6.7 3.4 11.8zM586.1 62.9c-5-3.9-12.2-5.9-18-8.1-2.6-.9-5.1-2.2-7.4-3.8-1.8-1.3-2.8-3.4-2.9-5.6 0-3.4 1.3-5.2 3.4-6.4s5-1.6 8-1.6c6.2 0 11.2 1.4 14.6 3.5.7.4 1.5.6 2.3.7 2.8 0 4.9-2.7 4.9-5.7-.1-1.3-.8-2.5-1.8-3.3-3.4-2.9-10.8-5.1-20.2-5.1-7.2 0-12.7 1.8-16.4 5s-5.5 7.9-5.5 13.4c-.2 4.8 1.9 9.4 5.5 12.6 4.9 4.3 12 6.3 17.8 8.4 2.6.8 5 2 7.3 3.5 1.7 1.1 2.8 3 2.8 5 0 3.4-1.2 5.3-3.1 6.5s-4.7 1.7-7.7 1.7c-6.3 0-13.1-1.6-16.4-3.6-.7-.4-1.4-.6-2.2-.7-1.4 0-2.7.7-3.4 1.8-.8 1.1-1.3 2.4-1.3 3.7.1 1.5.8 2.8 2 3.7 3.7 3.1 11.7 5.1 21.3 5.1 7.2 0 12.7-2 16.4-5.5s5.5-8.3 5.5-13.8c.1-4.5-1.9-8.7-5.5-11.4zM598.6 17.5c0-10.2 5.1-17.5 17.5-17.5 12.8 0 17.3 7.2 17.3 17.5S628.3 35 616.1 35s-17.5-7.2-17.5-17.5zm29.9 0c0-8.3-3-13.2-12.3-13.2s-12.5 4.9-12.5 13.2 3 13.3 12.5 13.3 12.3-5.2 12.3-13.3zm-14 7.1c0 1.1-1 2-2.1 2-1 .1-2-.6-2.1-1.7V10.2c0-1.5.8-2 2.1-2h4.9c3.1-.2 5.8 2.2 6 5.3v.5c-.1 2.3-1.4 4.3-3.4 5.4l3.1 4.2c.6.9.5 2.1-.4 2.7-.8.7-2 .7-2.7-.1-.1-.1-.1-.2-.2-.2l-4.2-5.9h-1.1l.1 4.5zm0-8.5h2.1c1.1.1 2.1-.6 2.2-1.7V14c0-1.3-1.1-1.9-2.3-1.9h-2.1l.1 4z"/></svg>