<?xml version="1.0" encoding="utf-8"?><svg xmlns="http://www.w3.org/2000/svg" xmlns:xlink="http://www.w3.org/1999/xlink"><symbol viewBox="0 0 24 24" id="arobase" xmlns="http://www.w3.org/2000/svg"><path d="M23.03 5.92a9.86 9.86 0 0 0-2.56-3.27c-1.06-.88-2.3-1.54-3.7-1.98A14.25 14.25 0 0 0 12.4 0c-1.72 0-3.33.31-4.83.92a12.4 12.4 0 0 0-3.93 2.53c-1.12 1.08-2 2.34-2.66 3.81C.33 8.72 0 10.31 0 12.03c0 1.74.31 3.35.92 4.82.61 1.47 1.47 2.74 2.56 3.79 1.1 1.05 2.4 1.88 3.93 2.47 1.52.59 3.2.89 5.02.89 1.95 0 3.76-.29 5.43-.85 1.66-.57 3.12-1.47 4.37-2.69L20.2 18.2c-.97.88-2.06 1.56-3.27 2.05-1.21.48-2.59.73-4.14.73-1.35 0-2.59-.21-3.72-.63a8.621 8.621 0 0 1-2.93-1.79 7.815 7.815 0 0 1-1.92-2.81c-.45-1.1-.68-2.33-.68-3.71 0-1.29.21-2.49.64-3.61.43-1.12 1.03-2.08 1.8-2.89s1.7-1.44 2.79-1.9c1.08-.46 2.28-.69 3.59-.69 1.22 0 2.35.17 3.37.5 1.02.33 1.9.82 2.64 1.46.74.64 1.32 1.44 1.72 2.4.41.95.61 2.05.61 3.3 0 1.5-.25 2.62-.76 3.36-.5.74-1.08 1.11-1.72 1.11-.37 0-.61-.12-.74-.35-.13-.24-.19-.5-.19-.8 0-.32.04-.72.13-1.19s.18-.96.29-1.48l1-5.05h-3.48L15 7.31h-.03c-.15-.47-.49-.88-1.03-1.23-.54-.34-1.21-.52-2.03-.52-.95 0-1.79.21-2.54.63-.75.41-1.4.96-1.94 1.63s-.97 1.45-1.26 2.32-.43 1.76-.43 2.66c0 .8.11 1.53.32 2.19.21.67.52 1.24.92 1.73.4.48.88.86 1.45 1.13.57.27 1.22.4 1.95.4.97 0 1.77-.22 2.42-.67.64-.45 1.12-.92 1.42-1.42h.13c.09.63.4 1.14.95 1.52.55.38 1.25.57 2.11.57.92 0 1.79-.17 2.59-.52.81-.34 1.51-.85 2.11-1.52.6-.67 1.07-1.48 1.4-2.45.33-.97.5-2.06.5-3.29-.01-1.73-.33-3.25-.98-4.55zm-9.15 6.54c-.11.45-.27.87-.48 1.25-.21.39-.49.7-.84.95-.34.25-.75.37-1.22.37-.69 0-1.15-.24-1.4-.72a3.25 3.25 0 0 1-.37-1.52c0-.47.06-.95.19-1.44s.31-.94.55-1.33c.24-.4.52-.72.84-.96s.69-.37 1.1-.37c.36 0 .67.07.9.21.24.14.42.33.55.56.13.24.22.5.27.8.05.3.08.61.08.93 0 .4-.06.83-.17 1.27z"/></symbol><symbol viewBox="0 0 30 8" id="arrow-btn" xmlns="http://www.w3.org/2000/svg"><path d="M30 4.02L14.96 0l-.01 3H0v2h14.94v3L30 4.02z"/></symbol><symbol viewBox="0 0 30 8" id="arrow-btn-white" xmlns="http://www.w3.org/2000/svg"><path fill="#fff" d="M30 4.02L14.96 0l-.01 3H0v2h14.94v3L30 4.02z"/></symbol><symbol id="caret" viewBox="0 0 8 12" xml:space="preserve" xmlns="http://www.w3.org/2000/svg"><style>.st0{display:none}</style><path class="st0" d="M.3 12c-.1 0-.2-.1-.3-.3-.1-.2 0-.5.2-.6L6.9 6 .2.9C0 .8-.1.5 0 .3S.3-.1.5 0l7.3 5.5c.1.2.2.3.2.5s-.1.3-.2.4L.5 12H.3z"/><path d="M8 6c0-.2-.1-.3-.2-.4L.8.1C.6-.1.3 0 .1.2c-.2.2-.1.5.1.7L6.7 6 .2 11.1c-.2.2-.3.5-.1.7.2.2.5.3.7.1l7-5.5c.1-.1.2-.2.2-.4z"/></symbol><symbol viewBox="0 0 37 28" id="email" xmlns="http://www.w3.org/2000/svg"><path d="M0 0v28h37V0H0zm34 25H3V5.9l15.5 11.6L34 6v19zm-.4-22l-15 11.3L3.5 3h30.1z"/></symbol><symbol viewBox="0 0 16.6 32" id="facebook" xmlns="http://www.w3.org/2000/svg"><path data-name="facebook" d="M10.8 32V17.4h4.9l.7-5.7h-5.6V8.1c0-1.7.4-2.8 2.8-2.8h3V.2L12.2 0C7.9 0 4.9 2.7 4.9 7.5v4.2H0v5.7h4.9V32z"/></symbol><symbol viewBox="0 0 20 20" id="linkedin" xmlns="http://www.w3.org/2000/svg"><path d="M.31 6.61h4.11V20H.31zM2.4 4.82A2.41 2.41 0 0 1 2.4 0a2.41 2.41 0 0 1 0 4.82zM20 20h-4.11v-6.76c0-1.56 0-3.58-2.17-3.58s-2.48 1.71-2.48 3.42V20H7.05V6.39h4v1.79h.08A4.32 4.32 0 0 1 15 6c4.18 0 5 2.8 5 6.38z"/></symbol><symbol viewBox="0 0 32 26" id="twitter" xmlns="http://www.w3.org/2000/svg"><path data-name="twitter" d="M32 3.1a11.94 11.94 0 0 1-3.8 1A6.44 6.44 0 0 0 31.1.5a15.07 15.07 0 0 1-4.2 1.6A6.38 6.38 0 0 0 22.2 0a6.51 6.51 0 0 0-6.6 6.4v.2a4 4 0 0 0 .2 1.5A18.9 18.9 0 0 1 2.2 1.2a7.51 7.51 0 0 0-.9 3.3 6.6 6.6 0 0 0 3 5.5 7.41 7.41 0 0 1-3-.9 6.6 6.6 0 0 0 5.3 6.5l-1.8.2H3.6a6.39 6.39 0 0 0 6.1 4.5 12.76 12.76 0 0 1-8.1 2.8H0A19.18 19.18 0 0 0 10.1 26c12 0 18.6-10 18.6-18.7v-.8A15.21 15.21 0 0 0 32 3.1z"/></symbol></svg>