<?xml version="1.0" encoding="utf-8"?>
<!-- Generator: Adobe Illustrator 23.0.1, SVG Export Plug-In . SVG Version: 6.00 Build 0)  -->
<svg version="1.1" id="Calque_1" xmlns="http://www.w3.org/2000/svg" xmlns:xlink="http://www.w3.org/1999/xlink" x="0px" y="0px"
	 viewBox="0 0 24 24" style="enable-background:new 0 0 24 24;" xml:space="preserve">
<g>
	<path d="M23.03,5.92c-0.64-1.3-1.5-2.39-2.56-3.27c-1.06-0.88-2.3-1.54-3.7-1.98C15.36,0.22,13.91,0,12.4,0
		c-1.72,0-3.33,0.31-4.83,0.92c-1.5,0.61-2.81,1.46-3.93,2.53c-1.12,1.08-2,2.34-2.66,3.81C0.33,8.72,0,10.31,0,12.03
		c0,1.74,0.31,3.35,0.92,4.82c0.61,1.47,1.47,2.74,2.56,3.79c1.1,1.05,2.4,1.88,3.93,2.47C8.93,23.7,10.61,24,12.43,24
		c1.95,0,3.76-0.29,5.43-0.85c1.66-0.57,3.12-1.47,4.37-2.69l-2.03-2.26c-0.97,0.88-2.06,1.56-3.27,2.05
		c-1.21,0.48-2.59,0.73-4.14,0.73c-1.35,0-2.59-0.21-3.72-0.63c-1.13-0.42-2.11-1.02-2.93-1.79c-0.83-0.77-1.47-1.71-1.92-2.81
		c-0.45-1.1-0.68-2.33-0.68-3.71c0-1.29,0.21-2.49,0.64-3.61c0.43-1.12,1.03-2.08,1.8-2.89s1.7-1.44,2.79-1.9
		c1.08-0.46,2.28-0.69,3.59-0.69c1.22,0,2.35,0.17,3.37,0.5c1.02,0.33,1.9,0.82,2.64,1.46c0.74,0.64,1.32,1.44,1.72,2.4
		c0.41,0.95,0.61,2.05,0.61,3.3c0,1.5-0.25,2.62-0.76,3.36c-0.5,0.74-1.08,1.11-1.72,1.11c-0.37,0-0.61-0.12-0.74-0.35
		c-0.13-0.24-0.19-0.5-0.19-0.8c0-0.32,0.04-0.72,0.13-1.19c0.09-0.47,0.18-0.96,0.29-1.48l1-5.05h-3.48l-0.23,1.1h-0.03
		c-0.15-0.47-0.49-0.88-1.03-1.23c-0.54-0.34-1.21-0.52-2.03-0.52c-0.95,0-1.79,0.21-2.54,0.63C8.62,6.6,7.97,7.15,7.43,7.82
		s-0.97,1.45-1.26,2.32s-0.43,1.76-0.43,2.66c0,0.8,0.11,1.53,0.32,2.19c0.21,0.67,0.52,1.24,0.92,1.73
		c0.4,0.48,0.88,0.86,1.45,1.13c0.57,0.27,1.22,0.4,1.95,0.4c0.97,0,1.77-0.22,2.42-0.67c0.64-0.45,1.12-0.92,1.42-1.42h0.13
		c0.09,0.63,0.4,1.14,0.95,1.52c0.55,0.38,1.25,0.57,2.11,0.57c0.92,0,1.79-0.17,2.59-0.52c0.81-0.34,1.51-0.85,2.11-1.52
		c0.6-0.67,1.07-1.48,1.4-2.45c0.33-0.97,0.5-2.06,0.5-3.29C24,8.74,23.68,7.22,23.03,5.92z M13.88,12.46
		c-0.11,0.45-0.27,0.87-0.48,1.25c-0.21,0.39-0.49,0.7-0.84,0.95c-0.34,0.25-0.75,0.37-1.22,0.37c-0.69,0-1.15-0.24-1.4-0.72
		c-0.25-0.48-0.37-0.99-0.37-1.52c0-0.47,0.06-0.95,0.19-1.44c0.13-0.49,0.31-0.94,0.55-1.33c0.24-0.4,0.52-0.72,0.84-0.96
		s0.69-0.37,1.1-0.37c0.36,0,0.67,0.07,0.9,0.21c0.24,0.14,0.42,0.33,0.55,0.56c0.13,0.24,0.22,0.5,0.27,0.8
		c0.05,0.3,0.08,0.61,0.08,0.93C14.05,11.59,13.99,12.02,13.88,12.46z"/>
</g>
</svg>
