<?xml version="1.0" encoding="utf-8"?>
<!-- Generator: Adobe Illustrator 23.0.1, SVG Export Plug-In . SVG Version: 6.00 Build 0)  -->
<svg version="1.1" id="Calque_1" xmlns="http://www.w3.org/2000/svg" xmlns:xlink="http://www.w3.org/1999/xlink" x="0px" y="0px"
	 viewBox="0 0 8 12" style="enable-background:new 0 0 8 12;" xml:space="preserve">
<style type="text/css">
	.st0{display:none;}
</style>
<path class="st0" d="M0.3,12c-0.1,0-0.2-0.1-0.3-0.3c-0.1-0.2,0-0.5,0.2-0.6L6.9,6L0.2,0.9C0,0.8-0.1,0.5,0,0.3S0.3-0.1,0.5,0
	l7.3,5.5C7.9,5.7,8,5.8,8,6S7.9,6.3,7.8,6.4L0.5,12C0.4,12,0.4,12,0.3,12z"/>
<path d="M8,6c0-0.2-0.1-0.3-0.2-0.4l-7-5.5C0.6-0.1,0.3,0,0.1,0.2C-0.1,0.4,0,0.7,0.2,0.9L6.7,6l-6.5,5.1c-0.2,0.2-0.3,0.5-0.1,0.7
	c0.2,0.2,0.5,0.3,0.7,0.1l7-5.5C7.9,6.3,8,6.2,8,6C8,6,8,6,8,6C8,6,8,6,8,6z"/>
</svg>
