<svg id="Calque_1" data-name="Calque 1" xmlns="http://www.w3.org/2000/svg" viewBox="0 0 32 26"><title>twitter</title><g id="twitter"><path id="twitter-2" data-name="twitter" d="M32,3.1a11.94,11.94,0,0,1-3.8,1A6.44,6.44,0,0,0,31.1.5a15.07,15.07,0,0,1-4.2,1.6A6.38,6.38,0,0,0,22.2,0a6.51,6.51,0,0,0-6.6,6.4v.2a4,4,0,0,0,.2,1.5A18.9,18.9,0,0,1,2.2,1.2a7.51,7.51,0,0,0-.9,3.3,6.6,6.6,0,0,0,3,5.5,7.41,7.41,0,0,1-3-.9h0a6.6,6.6,0,0,0,5.3,6.5l-1.8.2H3.6a6.39,6.39,0,0,0,6.1,4.5,12.76,12.76,0,0,1-8.1,2.8H0A19.18,19.18,0,0,0,10.1,26c12,0,18.6-10,18.6-18.7V6.5A15.21,15.21,0,0,0,32,3.1Z"/></g></svg>